<?xml version="1.0" encoding="utf-8"?>
<!-- Generator: Adobe Illustrator 16.0.0, SVG Export Plug-In . SVG Version: 6.00 Build 0)  -->
<!DOCTYPE svg PUBLIC "-//W3C//DTD SVG 1.1//EN" "http://www.w3.org/Graphics/SVG/1.1/DTD/svg11.dtd">
<svg version="1.1" id="Artwork" xmlns="http://www.w3.org/2000/svg" xmlns:xlink="http://www.w3.org/1999/xlink" x="0px" y="0px"
	 width="512px" height="512px" viewBox="0 0 512 512" enable-background="new 0 0 512 512" xml:space="preserve">
<path d="M456.011,88.283H110.593c-12.838,0-23.283,10.445-23.283,23.284v281.738c0,12.839,10.445,23.284,23.283,23.284h345.418
	c12.84,0,23.284-10.445,23.284-23.284V111.567C479.295,98.729,468.851,88.283,456.011,88.283z M248.463,117.594
	c0-2.923,2.393-5.315,5.314-5.315h31.87c2.923,0,5.314,2.392,5.314,5.315v9.994c0,2.923-2.392,5.315-5.314,5.315h-31.87
	c-2.922,0-5.314-2.392-5.314-5.315V117.594z M183.027,117.594c0-2.923,2.392-5.315,5.314-5.315h31.869
	c2.923,0,5.314,2.392,5.314,5.315v9.994c0,2.923-2.392,5.315-5.314,5.315h-31.869c-2.923,0-5.314-2.392-5.314-5.315V117.594z
	 M119.248,117.594c0-2.923,2.392-5.315,5.314-5.315h31.869c2.923,0,5.314,2.392,5.314,5.315v9.994c0,2.923-2.392,5.315-5.314,5.315
	h-31.869c-2.923,0-5.314-2.392-5.314-5.315V117.594z M460.667,390.241c0,3.065-2.533,5.573-5.625,5.573H111.563
	c-3.094,0-5.625-2.508-5.625-5.573V158.113c0-3.065,2.531-5.573,5.625-5.573h343.479c3.092,0,5.625,2.508,5.625,5.573V390.241z"/>
<path d="M225.336,301.467c0.988,2.089,0.853,5.462-0.303,7.496l-2.486,4.379c-1.155,2.034-0.747,5.051,0.907,6.704l14.57,14.569
	c1.654,1.653,4.671,2.062,6.705,0.908l4.182-2.373c2.034-1.154,5.42-1.265,7.525-0.245l4.576,1.913
	c2.201,0.79,4.512,3.28,5.133,5.535l1.473,5.339c0.621,2.255,3.043,4.099,5.382,4.099h20.605c2.339,0,4.761-1.844,5.382-4.099
	l1.473-5.339c0.621-2.255,2.933-4.74,5.136-5.524l4.175-1.727c2.111-1.006,5.503-0.884,7.537,0.271l4.471,2.538
	c2.034,1.154,5.051,0.746,6.705-0.907l14.57-14.569c1.654-1.653,2.063-4.67,0.908-6.704l-2.541-4.473
	c-1.154-2.034-1.275-5.425-0.27-7.536l1.713-4.127c0.785-2.202,3.273-4.513,5.527-5.135l5.52-1.522
	c2.254-0.622,4.099-3.044,4.099-5.383v-20.604c0-2.338-1.845-4.761-4.099-5.382l-5.52-1.522c-2.254-0.622-4.721-2.882-5.481-5.022
	s-2.345-9.162-1.19-11.196l2.777-4.895c1.154-2.034,0.746-5.051-0.908-6.704l-14.566-14.567c-1.654-1.653-4.671-2.062-6.705-0.908
	l-4.604,2.612c-2.034,1.154-5.42,1.263-7.523,0.241l-4.499-1.888c-2.2-0.793-4.509-3.287-5.131-5.542l-1.572-5.699
	c-0.622-2.255-3.044-4.099-5.383-4.099H273c-2.339,0-4.761,1.844-5.383,4.099l-1.572,5.699c-0.622,2.255-2.929,4.752-5.128,5.551
	l-4.902,2.079c-2.098,1.034-5.478,0.935-7.512-0.22l-4.309-2.446c-2.034-1.154-5.051-0.746-6.705,0.907l-14.57,14.568
	c-1.654,1.653-2.063,4.67-0.908,6.704l2.727,4.802c1.154,2.034,1.342,5.324,0.418,7.311s-4.688,7.99-6.941,8.612l-5.52,1.522
	c-2.254,0.622-4.099,3.044-4.099,5.382v20.604c0,2.338,1.845,4.761,4.099,5.383l5.52,1.522
	C220.468,293.082,224.348,299.378,225.336,301.467z M283.303,236.421c21.352,0,38.662,17.311,38.662,38.664
	c0,21.352-17.311,38.662-38.662,38.662s-38.662-17.311-38.662-38.662C244.641,253.732,261.951,236.421,283.303,236.421z"/>
</svg>
